<svg xmlns="http://www.w3.org/2000/svg" xmlns:xlink="http://www.w3.org/1999/xlink" contentStyleType="text/css" data-diagram-type="CLASS" height="887px" preserveAspectRatio="none" style="width:3311px;height:887px;background:#FFFFFF;" version="1.1" viewBox="0 0 3311 887" width="3311px" zoomAndPan="magnify"><defs/><g><!--class MainActivity--><g class="entity" data-entity="MainActivity" data-source-line="5" data-uid="ent0002" id="entity_MainActivity"><rect fill="#F1F1F1" height="96.8906" rx="2.5" ry="2.5" style="stroke:#181818;stroke-width:0.5;" width="342.7842" x="338" y="488.29"/><ellipse cx="462.1304" cy="504.29" fill="#ADD1B2" rx="11" ry="11" style="stroke:#181818;stroke-width:1;"/><path d="M465.0991,509.9306 Q464.521,510.2275 463.8804,510.3681 Q463.2397,510.5244 462.5366,510.5244 Q460.0366,510.5244 458.7085,508.8838 Q457.396,507.2275 457.396,504.1025 Q457.396,500.9775 458.7085,499.3213 Q460.0366,497.665 462.5366,497.665 Q463.2397,497.665 463.8804,497.8213 Q464.5366,497.9775 465.0991,498.2744 L465.0991,500.9931 Q464.4741,500.415 463.8804,500.1494 Q463.2866,499.8681 462.6616,499.8681 Q461.3179,499.8681 460.6304,500.9463 Q459.9429,502.0088 459.9429,504.1025 Q459.9429,506.1963 460.6304,507.2744 Q461.3179,508.3369 462.6616,508.3369 Q463.2866,508.3369 463.8804,508.0713 Q464.4741,507.79 465.0991,507.2119 L465.0991,509.9306 Z " fill="#000000"/><text fill="#000000" font-family="sans-serif" font-size="14" lengthAdjust="spacing" textLength="86.0234" x="482.6304" y="509.1367">MainActivity</text><line style="stroke:#181818;stroke-width:0.5;" x1="339" x2="679.7842" y1="520.29" y2="520.29"/><text fill="#000000" font-family="sans-serif" font-size="14" lengthAdjust="spacing" textLength="117.2637" x="344" y="537.2851">-emojis : String[]</text><text fill="#000000" font-family="sans-serif" font-size="14" lengthAdjust="spacing" textLength="10.1035" x="344" y="553.582">--</text><line style="stroke:#181818;stroke-width:0.5;" x1="339" x2="679.7842" y1="560.8838" y2="560.8838"/><text fill="#000000" font-family="sans-serif" font-size="14" lengthAdjust="spacing" textLength="330.7842" x="344" y="577.8789">#onCreate(savedInstanceState : Bundle) : void</text></g><!--class EventListActivity--><g class="entity" data-entity="EventListActivity" data-source-line="14" data-uid="ent0003" id="entity_EventListActivity"><rect fill="#F1F1F1" height="194.6719" rx="2.5" ry="2.5" style="stroke:#181818;stroke-width:0.5;" width="342.7842" x="1175.78" y="167.4"/><ellipse cx="1284.3313" cy="183.4" fill="#ADD1B2" rx="11" ry="11" style="stroke:#181818;stroke-width:1;"/><path d="M1287.3,189.0406 Q1286.7219,189.3375 1286.0813,189.4781 Q1285.4406,189.6344 1284.7375,189.6344 Q1282.2375,189.6344 1280.9094,187.9937 Q1279.5969,186.3375 1279.5969,183.2125 Q1279.5969,180.0875 1280.9094,178.4312 Q1282.2375,176.775 1284.7375,176.775 Q1285.4406,176.775 1286.0813,176.9312 Q1286.7375,177.0875 1287.3,177.3844 L1287.3,180.1031 Q1286.675,179.525 1286.0813,179.2594 Q1285.4875,178.9781 1284.8625,178.9781 Q1283.5188,178.9781 1282.8313,180.0562 Q1282.1438,181.1187 1282.1438,183.2125 Q1282.1438,185.3062 1282.8313,186.3844 Q1283.5188,187.4469 1284.8625,187.4469 Q1285.4875,187.4469 1286.0813,187.1812 Q1286.675,186.9 1287.3,186.3219 L1287.3,189.0406 Z " fill="#000000"/><text fill="#000000" font-family="sans-serif" font-size="14" lengthAdjust="spacing" textLength="117.1816" x="1304.8313" y="188.2467">EventListActivity</text><line style="stroke:#181818;stroke-width:0.5;" x1="1176.78" x2="1517.5642" y1="199.4" y2="199.4"/><text fill="#000000" font-family="sans-serif" font-size="14" lengthAdjust="spacing" textLength="130.7646" x="1181.78" y="216.3951">-listView : ListView</text><text fill="#000000" font-family="sans-serif" font-size="14" lengthAdjust="spacing" textLength="193.8262" x="1181.78" y="232.692">-adapter : EventListAdapter</text><text fill="#000000" font-family="sans-serif" font-size="14" lengthAdjust="spacing" textLength="144.6895" x="1181.78" y="248.9889">-selectedDate : Date</text><text fill="#000000" font-family="sans-serif" font-size="14" lengthAdjust="spacing" textLength="10.1035" x="1181.78" y="265.2857">--</text><line style="stroke:#181818;stroke-width:0.5;" x1="1176.78" x2="1517.5642" y1="272.5875" y2="272.5875"/><text fill="#000000" font-family="sans-serif" font-size="14" lengthAdjust="spacing" textLength="330.7842" x="1181.78" y="289.5826">#onCreate(savedInstanceState : Bundle) : void</text><text fill="#000000" font-family="sans-serif" font-size="14" lengthAdjust="spacing" textLength="4.4502" x="1181.78" y="305.8795">&#160;</text><text fill="#000000" font-family="sans-serif" font-size="14" lengthAdjust="spacing" textLength="171.3701" x="1181.78" y="322.1764">-showDatePicker() : void</text><text fill="#000000" font-family="sans-serif" font-size="14" lengthAdjust="spacing" textLength="256.1699" x="1181.78" y="338.4732">-loadLogsForDate(date : Date) : void</text><text fill="#000000" font-family="sans-serif" font-size="14" lengthAdjust="spacing" textLength="280.2393" x="1181.78" y="354.7701">-showEditDialog(entry : LogEntry) : void</text></g><!--class SummaryActivity--><g class="entity" data-entity="SummaryActivity" data-source-line="28" data-uid="ent0004" id="entity_SummaryActivity"><rect fill="#F1F1F1" height="178.375" rx="2.5" ry="2.5" style="stroke:#181818;stroke-width:0.5;" width="342.7842" x="1175.78" y="566.55"/><ellipse cx="1282.7932" cy="582.55" fill="#ADD1B2" rx="11" ry="11" style="stroke:#181818;stroke-width:1;"/><path d="M1285.7619,588.1906 Q1285.1838,588.4875 1284.5432,588.6281 Q1283.9026,588.7844 1283.1994,588.7844 Q1280.6994,588.7844 1279.3713,587.1438 Q1278.0588,585.4875 1278.0588,582.3625 Q1278.0588,579.2375 1279.3713,577.5813 Q1280.6994,575.925 1283.1994,575.925 Q1283.9026,575.925 1284.5432,576.0813 Q1285.1994,576.2375 1285.7619,576.5344 L1285.7619,579.2531 Q1285.1369,578.675 1284.5432,578.4094 Q1283.9494,578.1281 1283.3244,578.1281 Q1281.9807,578.1281 1281.2932,579.2063 Q1280.6057,580.2688 1280.6057,582.3625 Q1280.6057,584.4563 1281.2932,585.5344 Q1281.9807,586.5969 1283.3244,586.5969 Q1283.9494,586.5969 1284.5432,586.3313 Q1285.1369,586.05 1285.7619,585.4719 L1285.7619,588.1906 Z " fill="#000000"/><text fill="#000000" font-family="sans-serif" font-size="14" lengthAdjust="spacing" textLength="120.2578" x="1303.2932" y="587.3967">SummaryActivity</text><line style="stroke:#181818;stroke-width:0.5;" x1="1176.78" x2="1517.5642" y1="598.55" y2="598.55"/><text fill="#000000" font-family="sans-serif" font-size="14" lengthAdjust="spacing" textLength="144.6895" x="1181.78" y="615.5451">-selectedDate : Date</text><text fill="#000000" font-family="sans-serif" font-size="14" lengthAdjust="spacing" textLength="167.207" x="1181.78" y="631.842">-summaryList : ListView</text><text fill="#000000" font-family="sans-serif" font-size="14" lengthAdjust="spacing" textLength="149.3379" x="1181.78" y="648.1389">-noEntries : TextView</text><text fill="#000000" font-family="sans-serif" font-size="14" lengthAdjust="spacing" textLength="10.1035" x="1181.78" y="664.4357">--</text><line style="stroke:#181818;stroke-width:0.5;" x1="1176.78" x2="1517.5642" y1="671.7375" y2="671.7375"/><text fill="#000000" font-family="sans-serif" font-size="14" lengthAdjust="spacing" textLength="330.7842" x="1181.78" y="688.7326">#onCreate(savedInstanceState : Bundle) : void</text><text fill="#000000" font-family="sans-serif" font-size="14" lengthAdjust="spacing" textLength="4.4502" x="1181.78" y="705.0295">&#160;</text><text fill="#000000" font-family="sans-serif" font-size="14" lengthAdjust="spacing" textLength="171.3701" x="1181.78" y="721.3264">-showDatePicker() : void</text><text fill="#000000" font-family="sans-serif" font-size="14" lengthAdjust="spacing" textLength="235.4434" x="1181.78" y="737.6232">-loadSummary(date : Date) : void</text></g><!--class LogManager--><g class="entity" data-entity="LogManager" data-source-line="41" data-uid="ent0005" id="entity_LogManager"><rect fill="#F1F1F1" height="227.2656" rx="2.5" ry="2.5" style="stroke:#181818;stroke-width:0.5;" width="416.2842" x="1831.7" y="383.11"/><ellipse cx="1992.283" cy="399.11" fill="#ADD1B2" rx="11" ry="11" style="stroke:#181818;stroke-width:1;"/><path d="M1995.2518,404.7506 Q1994.6736,405.0475 1994.033,405.1881 Q1993.3924,405.3444 1992.6893,405.3444 Q1990.1893,405.3444 1988.8611,403.7038 Q1987.5486,402.0475 1987.5486,398.9225 Q1987.5486,395.7975 1988.8611,394.1413 Q1990.1893,392.485 1992.6893,392.485 Q1993.3924,392.485 1994.033,392.6413 Q1994.6893,392.7975 1995.2518,393.0944 L1995.2518,395.8131 Q1994.6268,395.235 1994.033,394.9694 Q1993.4393,394.6881 1992.8143,394.6881 Q1991.4705,394.6881 1990.783,395.7663 Q1990.0955,396.8288 1990.0955,398.9225 Q1990.0955,401.0163 1990.783,402.0944 Q1991.4705,403.1569 1992.8143,403.1569 Q1993.4393,403.1569 1994.033,402.8913 Q1994.6268,402.61 1995.2518,402.0319 L1995.2518,404.7506 Z " fill="#000000"/><text fill="#000000" font-family="sans-serif" font-size="14" lengthAdjust="spacing" textLength="86.6182" x="2012.783" y="403.9567">LogManager</text><line style="stroke:#181818;stroke-width:0.5;" x1="1832.7" x2="2246.9842" y1="415.11" y2="415.11"/><text fill="#000000" font-family="sans-serif" font-size="14" lengthAdjust="spacing" text-decoration="underline" textLength="164.5957" x="1837.7" y="432.1051">-instance : LogManager</text><text fill="#000000" font-family="sans-serif" font-size="14" lengthAdjust="spacing" textLength="157.7393" x="1837.7" y="448.402">-logs : List&lt;LogEntry&gt;</text><text fill="#000000" font-family="sans-serif" font-size="14" lengthAdjust="spacing" textLength="10.1035" x="1837.7" y="464.6989">--</text><line style="stroke:#181818;stroke-width:0.5;" x1="1832.7" x2="2246.9842" y1="472.0006" y2="472.0006"/><text fill="#000000" font-family="sans-serif" font-size="14" lengthAdjust="spacing" textLength="102.5938" x="1837.7" y="488.9957">-LogManager()</text><text fill="#000000" font-family="sans-serif" font-size="14" lengthAdjust="spacing" textLength="4.4502" x="1837.7" y="505.2926">&#160;</text><text fill="#000000" font-family="sans-serif" font-size="14" lengthAdjust="spacing" text-decoration="underline" textLength="198.748" x="1837.7" y="521.5895">-getInstance() : LogManager</text><text fill="#000000" font-family="sans-serif" font-size="14" lengthAdjust="spacing" textLength="336.3145" x="1837.7" y="537.8864">-addLog(emoji : String, timestamp : Date) : void</text><text fill="#000000" font-family="sans-serif" font-size="14" lengthAdjust="spacing" textLength="325.5615" x="1837.7" y="554.1832">-getLogsByDate(date : Date) : List&lt;LogEntry&gt;</text><text fill="#000000" font-family="sans-serif" font-size="14" lengthAdjust="spacing" textLength="404.2842" x="1837.7" y="570.4801">-getSummaryByDate(date : Date) : Map&lt;String, Integer&gt;</text><text fill="#000000" font-family="sans-serif" font-size="14" lengthAdjust="spacing" textLength="4.4502" x="1837.7" y="586.777">&#160;</text><text fill="#000000" font-family="sans-serif" font-size="14" lengthAdjust="spacing" textLength="302.7568" x="1837.7" y="603.0739">-isSameDay(d1 : Date, d2 : Date) : boolean</text></g><!--class LogEntry--><g class="entity" data-entity="LogEntry" data-source-line="56" data-uid="ent0006" id="entity_LogEntry"><rect fill="#F1F1F1" height="178.375" rx="2.5" ry="2.5" style="stroke:#181818;stroke-width:0.5;" width="315.9668" x="2554.13" y="256.55"/><ellipse cx="2676.6129" cy="272.55" fill="#ADD1B2" rx="11" ry="11" style="stroke:#181818;stroke-width:1;"/><path d="M2679.5817,278.1906 Q2679.0035,278.4875 2678.3629,278.6281 Q2677.7223,278.7844 2677.0192,278.7844 Q2674.5192,278.7844 2673.191,277.1438 Q2671.8785,275.4875 2671.8785,272.3625 Q2671.8785,269.2375 2673.191,267.5813 Q2674.5192,265.925 2677.0192,265.925 Q2677.7223,265.925 2678.3629,266.0813 Q2679.0192,266.2375 2679.5817,266.5344 L2679.5817,269.2531 Q2678.9567,268.675 2678.3629,268.4094 Q2677.7692,268.1281 2677.1442,268.1281 Q2675.8004,268.1281 2675.1129,269.2063 Q2674.4254,270.2688 2674.4254,272.3625 Q2674.4254,274.4563 2675.1129,275.5344 Q2675.8004,276.5969 2677.1442,276.5969 Q2677.7692,276.5969 2678.3629,276.3313 Q2678.9567,276.05 2679.5817,275.4719 L2679.5817,278.1906 Z " fill="#000000"/><text fill="#000000" font-family="sans-serif" font-size="14" lengthAdjust="spacing" textLength="62.501" x="2697.1129" y="277.3967">LogEntry</text><line style="stroke:#181818;stroke-width:0.5;" x1="2555.13" x2="2869.0968" y1="288.55" y2="288.55"/><text fill="#000000" font-family="sans-serif" font-size="14" lengthAdjust="spacing" textLength="99.0459" x="2560.13" y="305.5451">-emoji : String</text><text fill="#000000" font-family="sans-serif" font-size="14" lengthAdjust="spacing" textLength="127.6475" x="2560.13" y="321.842">-timestamp : Date</text><text fill="#000000" font-family="sans-serif" font-size="14" lengthAdjust="spacing" textLength="10.1035" x="2560.13" y="338.1389">--</text><line style="stroke:#181818;stroke-width:0.5;" x1="2555.13" x2="2869.0968" y1="345.4406" y2="345.4406"/><text fill="#000000" font-family="sans-serif" font-size="14" lengthAdjust="spacing" textLength="303.9668" x="2560.13" y="362.4357">-LogEntry(emoji : String, timestamp : Date)</text><text fill="#000000" font-family="sans-serif" font-size="14" lengthAdjust="spacing" textLength="133.1914" x="2560.13" y="378.7326">-getEmoji() : String</text><text fill="#000000" font-family="sans-serif" font-size="14" lengthAdjust="spacing" textLength="213.4385" x="2560.13" y="395.0295">-setEmoji(emoji : String) : void</text><text fill="#000000" font-family="sans-serif" font-size="14" lengthAdjust="spacing" textLength="164.623" x="2560.13" y="411.3264">-getTimestamp() : Date</text><text fill="#000000" font-family="sans-serif" font-size="14" lengthAdjust="spacing" textLength="281.791" x="2560.13" y="427.6232">-setTimestamp(timestamp : Date) : void</text></g><!--class EventListAdapter--><g class="entity" data-entity="EventListAdapter" data-source-line="69" data-uid="ent0007" id="entity_EventListAdapter"><rect fill="#F1F1F1" height="129.4844" rx="2.5" ry="2.5" style="stroke:#181818;stroke-width:0.5;" width="506.9971" x="1786.34" y="7"/><ellipse cx="1975.4049" cy="23" fill="#ADD1B2" rx="11" ry="11" style="stroke:#181818;stroke-width:1;"/><path d="M1978.3737,28.6406 Q1977.7956,28.9375 1977.1549,29.0781 Q1976.5143,29.2344 1975.8112,29.2344 Q1973.3112,29.2344 1971.9831,27.5938 Q1970.6706,25.9375 1970.6706,22.8125 Q1970.6706,19.6875 1971.9831,18.0313 Q1973.3112,16.375 1975.8112,16.375 Q1976.5143,16.375 1977.1549,16.5313 Q1977.8112,16.6875 1978.3737,16.9844 L1978.3737,19.7031 Q1977.7487,19.125 1977.1549,18.8594 Q1976.5612,18.5781 1975.9362,18.5781 Q1974.5924,18.5781 1973.9049,19.6563 Q1973.2174,20.7188 1973.2174,22.8125 Q1973.2174,24.9063 1973.9049,25.9844 Q1974.5924,27.0469 1975.9362,27.0469 Q1976.5612,27.0469 1977.1549,26.7813 Q1977.7487,26.5 1978.3737,25.9219 L1978.3737,28.6406 Z " fill="#000000"/><text fill="#000000" font-family="sans-serif" font-size="14" lengthAdjust="spacing" textLength="120.3672" x="1995.9049" y="27.8467">EventListAdapter</text><line style="stroke:#181818;stroke-width:0.5;" x1="1787.34" x2="2292.3371" y1="39" y2="39"/><text fill="#000000" font-family="sans-serif" font-size="14" lengthAdjust="spacing" textLength="166.5371" x="1792.34" y="55.9951">-inflater : LayoutInflater</text><text fill="#000000" font-family="sans-serif" font-size="14" lengthAdjust="spacing" textLength="171.124" x="1792.34" y="72.292">-sdf : SimpleDateFormat</text><text fill="#000000" font-family="sans-serif" font-size="14" lengthAdjust="spacing" textLength="10.1035" x="1792.34" y="88.5889">--</text><line style="stroke:#181818;stroke-width:0.5;" x1="1787.34" x2="2292.3371" y1="95.8906" y2="95.8906"/><text fill="#000000" font-family="sans-serif" font-size="14" lengthAdjust="spacing" textLength="439.5439" x="1792.34" y="112.8857">-EventListAdapter(context : Context, entries : List&lt;LogEntry&gt;)</text><text fill="#000000" font-family="sans-serif" font-size="14" lengthAdjust="spacing" textLength="494.9971" x="1792.34" y="129.1826">-getView(position : int, convertView : View, parent : ViewGroup) : View</text></g><!--class SummaryAdapter--><g class="entity" data-entity="SummaryAdapter" data-source-line="79" data-uid="ent0008" id="entity_SummaryAdapter"><rect fill="#F1F1F1" height="129.4844" rx="2.5" ry="2.5" style="stroke:#181818;stroke-width:0.5;" width="588.5498" x="1745.56" y="751"/><ellipse cx="1973.8632" cy="767" fill="#ADD1B2" rx="11" ry="11" style="stroke:#181818;stroke-width:1;"/><path d="M1976.832,772.6406 Q1976.2538,772.9375 1975.6132,773.0781 Q1974.9726,773.2344 1974.2695,773.2344 Q1971.7695,773.2344 1970.4413,771.5938 Q1969.1288,769.9375 1969.1288,766.8125 Q1969.1288,763.6875 1970.4413,762.0313 Q1971.7695,760.375 1974.2695,760.375 Q1974.9726,760.375 1975.6132,760.5313 Q1976.2695,760.6875 1976.832,760.9844 L1976.832,763.7031 Q1976.207,763.125 1975.6132,762.8594 Q1975.0195,762.5781 1974.3945,762.5781 Q1973.0507,762.5781 1972.3632,763.6563 Q1971.6757,764.7188 1971.6757,766.8125 Q1971.6757,768.9063 1972.3632,769.9844 Q1973.0507,771.0469 1974.3945,771.0469 Q1975.0195,771.0469 1975.6132,770.7813 Q1976.207,770.5 1976.832,769.9219 L1976.832,772.6406 Z " fill="#000000"/><text fill="#000000" font-family="sans-serif" font-size="14" lengthAdjust="spacing" textLength="123.4434" x="1994.3632" y="771.8467">SummaryAdapter</text><line style="stroke:#181818;stroke-width:0.5;" x1="1746.56" x2="2333.1098" y1="783" y2="783"/><text fill="#000000" font-family="sans-serif" font-size="14" lengthAdjust="spacing" textLength="166.5371" x="1751.56" y="799.9951">-inflater : LayoutInflater</text><text fill="#000000" font-family="sans-serif" font-size="14" lengthAdjust="spacing" textLength="68.9336" x="1751.56" y="816.292">-total : int</text><text fill="#000000" font-family="sans-serif" font-size="14" lengthAdjust="spacing" textLength="10.1035" x="1751.56" y="832.5889">--</text><line style="stroke:#181818;stroke-width:0.5;" x1="1746.56" x2="2333.1098" y1="839.8906" y2="839.8906"/><text fill="#000000" font-family="sans-serif" font-size="14" lengthAdjust="spacing" textLength="576.5498" x="1751.56" y="856.8857">-SummaryAdapter(context : Context, summary : Map&lt;String, Integer&gt;, total : int)</text><text fill="#000000" font-family="sans-serif" font-size="14" lengthAdjust="spacing" textLength="494.9971" x="1751.56" y="873.1826">-getView(position : int, convertView : View, parent : ViewGroup) : View</text></g><g class="entity" data-entity="GMN18" data-source-line="101" data-uid="ent0019" id="entity_GMN18"><path d="M1190.56,779.47 L1190.56,850.0013 L1503.7744,850.0013 L1503.7744,789.47 L1493.7744,779.47 L1190.56,779.47" fill="#FEFFDD" style="stroke:#181818;stroke-width:0.5;"/><path d="M1493.7744,779.47 L1493.7744,789.47 L1503.7744,789.47 L1493.7744,779.47" fill="#FEFFDD" style="stroke:#181818;stroke-width:1;"/><text fill="#000000" font-family="sans-serif" font-size="13" lengthAdjust="spacing" textLength="105.5806" x="1196.56" y="796.5369">Responsibilities:</text><text fill="#000000" font-family="sans-serif" font-size="13" lengthAdjust="spacing" textLength="4.1323" x="1196.56" y="811.6697">&#160;</text><text fill="#000000" font-family="sans-serif" font-size="13" lengthAdjust="spacing" textLength="292.2144" x="1196.56" y="826.8025">- Render emoji grid and log mood selections.</text><text fill="#000000" font-family="sans-serif" font-size="13" lengthAdjust="spacing" textLength="281.2202" x="1196.56" y="841.9353">- Launch event list and summary activities.</text></g><g class="entity" data-entity="GMN21" data-source-line="108" data-uid="ent0022" id="entity_GMN21"><path d="M1850.68,171.47 L1850.68,218.57 L1518.9,250.4 L1850.68,226.57 L1850.68,242.0013 A0,0 0 0 0 1850.68,242.0013 L2228.9959,242.0013 A0,0 0 0 0 2228.9959,242.0013 L2228.9959,181.47 L2218.9959,171.47 L1850.68,171.47 A0,0 0 0 0 1850.68,171.47" fill="#FEFFDD" style="stroke:#181818;stroke-width:0.5;"/><path d="M2218.9959,171.47 L2218.9959,181.47 L2228.9959,181.47 L2218.9959,171.47" fill="#FEFFDD" style="stroke:#181818;stroke-width:0.5;"/><text fill="#000000" font-family="sans-serif" font-size="13" lengthAdjust="spacing" textLength="105.5806" x="1856.68" y="188.5369">Responsibilities:</text><text fill="#000000" font-family="sans-serif" font-size="13" lengthAdjust="spacing" textLength="4.1323" x="1856.68" y="203.6697">&#160;</text><text fill="#000000" font-family="sans-serif" font-size="13" lengthAdjust="spacing" textLength="266.2969" x="1856.68" y="218.8025">- Let users pick a day to view mood logs.</text><text fill="#000000" font-family="sans-serif" font-size="13" lengthAdjust="spacing" textLength="357.3159" x="1856.68" y="233.9353">- Bind daily entries to the list and handle edits/deletes.</text></g><g class="entity" data-entity="GMN24" data-source-line="115" data-uid="ent0025" id="entity_GMN24"><path d="M1854.55,645.47 L1854.55,670.06 L1518.9,661.92 L1854.55,678.06 L1854.55,716.0013 A0,0 0 0 0 1854.55,716.0013 L2225.1345,716.0013 A0,0 0 0 0 2225.1345,716.0013 L2225.1345,655.47 L2215.1345,645.47 L1854.55,645.47 A0,0 0 0 0 1854.55,645.47" fill="#FEFFDD" style="stroke:#181818;stroke-width:0.5;"/><path d="M2215.1345,645.47 L2215.1345,655.47 L2225.1345,655.47 L2215.1345,645.47" fill="#FEFFDD" style="stroke:#181818;stroke-width:0.5;"/><text fill="#000000" font-family="sans-serif" font-size="13" lengthAdjust="spacing" textLength="105.5806" x="1860.55" y="662.5369">Responsibilities:</text><text fill="#000000" font-family="sans-serif" font-size="13" lengthAdjust="spacing" textLength="4.1323" x="1860.55" y="677.6697">&#160;</text><text fill="#000000" font-family="sans-serif" font-size="13" lengthAdjust="spacing" textLength="301.8057" x="1860.55" y="692.8025">- Fetch and present per-day emoji summaries.</text><text fill="#000000" font-family="sans-serif" font-size="13" lengthAdjust="spacing" textLength="349.5845" x="1860.55" y="707.9353">- Toggle empty state messaging when no data exists.</text></g><g class="entity" data-entity="GMN27" data-source-line="122" data-uid="ent0028" id="entity_GMN27"><path d="M1868.74,277.47 L1868.74,348.0013 A0,0 0 0 0 1868.74,348.0013 L2035.84,348.0013 L2039.84,382.82 L2043.84,348.0013 L2210.9314,348.0013 A0,0 0 0 0 2210.9314,348.0013 L2210.9314,287.47 L2200.9314,277.47 L1868.74,277.47 A0,0 0 0 0 1868.74,277.47" fill="#FEFFDD" style="stroke:#181818;stroke-width:0.5;"/><path d="M2200.9314,277.47 L2200.9314,287.47 L2210.9314,287.47 L2200.9314,277.47" fill="#FEFFDD" style="stroke:#181818;stroke-width:0.5;"/><text fill="#000000" font-family="sans-serif" font-size="13" lengthAdjust="spacing" textLength="105.5806" x="1874.74" y="294.5369">Responsibilities:</text><text fill="#000000" font-family="sans-serif" font-size="13" lengthAdjust="spacing" textLength="4.1323" x="1874.74" y="309.6697">&#160;</text><text fill="#000000" font-family="sans-serif" font-size="13" lengthAdjust="spacing" textLength="301.8882" x="1874.74" y="324.8025">- Maintain singleton store of LogEntry records.</text><text fill="#000000" font-family="sans-serif" font-size="13" lengthAdjust="spacing" textLength="321.1914" x="1874.74" y="339.9353">- Provide per-day retrieval and summary helpers.</text></g><g class="entity" data-entity="GMN30" data-source-line="129" data-uid="ent0031" id="entity_GMN30"><path d="M2990.12,318.04 L2990.12,341.74 L2870.37,345.74 L2990.12,349.74 L2990.12,373.4384 A0,0 0 0 0 2990.12,373.4384 L3304.1659,373.4384 A0,0 0 0 0 3304.1659,373.4384 L3304.1659,328.04 L3294.1659,318.04 L2990.12,318.04 A0,0 0 0 0 2990.12,318.04" fill="#FEFFDD" style="stroke:#181818;stroke-width:0.5;"/><path d="M3294.1659,318.04 L3294.1659,328.04 L3304.1659,328.04 L3294.1659,318.04" fill="#FEFFDD" style="stroke:#181818;stroke-width:0.5;"/><text fill="#000000" font-family="sans-serif" font-size="13" lengthAdjust="spacing" textLength="105.5806" x="2996.12" y="335.1069">Responsibilities:</text><text fill="#000000" font-family="sans-serif" font-size="13" lengthAdjust="spacing" textLength="4.1323" x="2996.12" y="350.2397">&#160;</text><text fill="#000000" font-family="sans-serif" font-size="13" lengthAdjust="spacing" textLength="293.0459" x="2996.12" y="365.3725">- Capture emoji selection with its timestamp.</text></g><g class="entity" data-entity="GMN33" data-source-line="135" data-uid="ent0034" id="entity_GMN33"><path d="M2518.32,36.47 L2518.32,67.74 L2293.76,71.74 L2518.32,75.74 L2518.32,107.0013 A0,0 0 0 0 2518.32,107.0013 L2905.9225,107.0013 A0,0 0 0 0 2905.9225,107.0013 L2905.9225,46.47 L2895.9225,36.47 L2518.32,36.47 A0,0 0 0 0 2518.32,36.47" fill="#FEFFDD" style="stroke:#181818;stroke-width:0.5;"/><path d="M2895.9225,36.47 L2895.9225,46.47 L2905.9225,46.47 L2895.9225,36.47" fill="#FEFFDD" style="stroke:#181818;stroke-width:0.5;"/><text fill="#000000" font-family="sans-serif" font-size="13" lengthAdjust="spacing" textLength="105.5806" x="2524.32" y="53.5369">Responsibilities:</text><text fill="#000000" font-family="sans-serif" font-size="13" lengthAdjust="spacing" textLength="4.1323" x="2524.32" y="68.6697">&#160;</text><text fill="#000000" font-family="sans-serif" font-size="13" lengthAdjust="spacing" textLength="366.6025" x="2524.32" y="83.8025">- Inflate event rows and bind emoji plus timestamp text.</text><text fill="#000000" font-family="sans-serif" font-size="13" lengthAdjust="spacing" textLength="212.7861" x="2524.32" y="98.9353">- Format timestamps for display.</text></g><g class="entity" data-entity="GMN36" data-source-line="142" data-uid="ent0037" id="entity_GMN36"><path d="M2495.11,788.04 L2495.11,811.74 L2334.34,815.74 L2495.11,819.74 L2495.11,843.4384 A0,0 0 0 0 2495.11,843.4384 L2929.1203,843.4384 A0,0 0 0 0 2929.1203,843.4384 L2929.1203,798.04 L2919.1203,788.04 L2495.11,788.04 A0,0 0 0 0 2495.11,788.04" fill="#FEFFDD" style="stroke:#181818;stroke-width:0.5;"/><path d="M2919.1203,788.04 L2919.1203,798.04 L2929.1203,798.04 L2919.1203,788.04" fill="#FEFFDD" style="stroke:#181818;stroke-width:0.5;"/><text fill="#000000" font-family="sans-serif" font-size="13" lengthAdjust="spacing" textLength="105.5806" x="2501.11" y="805.1069">Responsibilities:</text><text fill="#000000" font-family="sans-serif" font-size="13" lengthAdjust="spacing" textLength="4.1323" x="2501.11" y="820.2397">&#160;</text><text fill="#000000" font-family="sans-serif" font-size="13" lengthAdjust="spacing" textLength="413.0103" x="2501.11" y="835.3725">- Snapshot summary data and render counts with percentages.</text></g><g class="entity" data-entity="Resources" data-source-line="148" data-uid="ent0039" id="entity_Resources"><path d="M374.35,186.11 L374.35,453.3678 L644.432,453.3678 L644.432,196.11 L634.432,186.11 L374.35,186.11" fill="#FEFFDD" style="stroke:#181818;stroke-width:0.5;"/><path d="M634.432,186.11 L634.432,196.11 L644.432,196.11 L634.432,186.11" fill="#FEFFDD" style="stroke:#181818;stroke-width:1;"/><text fill="#000000" font-family="sans-serif" font-size="13" lengthAdjust="spacing" textLength="71.6396" x="380.35" y="203.1769">Resources:</text><text fill="#000000" font-family="sans-serif" font-size="13" lengthAdjust="spacing" textLength="4.1323" x="380.35" y="218.3097">&#160;</text><text fill="#000000" font-family="sans-serif" font-size="13" lengthAdjust="spacing" textLength="142.9492" x="380.35" y="233.4425">- AndroidManifest.xml</text><text fill="#000000" font-family="sans-serif" font-size="13" lengthAdjust="spacing" textLength="193.2607" x="380.35" y="248.5753">- res/layout/activity_main.xml</text><text fill="#000000" font-family="sans-serif" font-size="13" lengthAdjust="spacing" textLength="223.3994" x="380.35" y="263.7081">- res/layout/activity_event_list.xml</text><text fill="#000000" font-family="sans-serif" font-size="13" lengthAdjust="spacing" textLength="222.1235" x="380.35" y="278.841">- res/layout/activity_summary.xml</text><text fill="#000000" font-family="sans-serif" font-size="13" lengthAdjust="spacing" textLength="179.2578" x="380.35" y="293.9738">- res/layout/item_event.xml</text><text fill="#000000" font-family="sans-serif" font-size="13" lengthAdjust="spacing" textLength="203.5757" x="380.35" y="309.1066">- res/layout/item_summary.xml</text><text fill="#000000" font-family="sans-serif" font-size="13" lengthAdjust="spacing" textLength="249.082" x="380.35" y="324.2394">- res/drawable/bg_button_primary.xml</text><text fill="#000000" font-family="sans-serif" font-size="13" lengthAdjust="spacing" textLength="184.666" x="380.35" y="339.3722">- res/drawable/bg_emoji.xml</text><text fill="#000000" font-family="sans-serif" font-size="13" lengthAdjust="spacing" textLength="146.8657" x="380.35" y="354.505">- res/values/colors.xml</text><text fill="#000000" font-family="sans-serif" font-size="13" lengthAdjust="spacing" textLength="45.0938" x="388.6146" y="369.6378">Colors:</text><text fill="#000000" font-family="sans-serif" font-size="13" lengthAdjust="spacing" textLength="140.2705" x="380.35" y="384.7706">- bg_app = #FCD8CD</text><text fill="#000000" font-family="sans-serif" font-size="13" lengthAdjust="spacing" textLength="169.6475" x="380.35" y="399.9035">- btn_primary = #EBD6FB</text><text fill="#000000" font-family="sans-serif" font-size="13" lengthAdjust="spacing" textLength="146.2881" x="380.35" y="415.0363">- emoji_bg = #FEEBF6</text><text fill="#000000" font-family="sans-serif" font-size="13" lengthAdjust="spacing" textLength="171.7612" x="380.35" y="430.1691">- text_primary = #222222</text><text fill="#000000" font-family="sans-serif" font-size="13" lengthAdjust="spacing" textLength="188.6396" x="380.35" y="445.3019">- text_on_button = #EBD6FB</text></g><g class="entity" data-entity="Citations" data-source-line="168" data-uid="ent0040" id="entity_Citations"><path d="M6,80.47 L6,151.0013 L1012.7783,151.0013 L1012.7783,90.47 L1002.7783,80.47 L6,80.47" fill="#FEFFDD" style="stroke:#181818;stroke-width:0.5;"/><path d="M1002.7783,80.47 L1002.7783,90.47 L1012.7783,90.47 L1002.7783,80.47" fill="#FEFFDD" style="stroke:#181818;stroke-width:1;"/><text fill="#000000" font-family="sans-serif" font-size="13" lengthAdjust="spacing" textLength="936.0825" x="12" y="97.5369">Android DatePickerDialog - official Android reference. Source: Google Android Developer Docs, 2023. License: Apache License 2.0. URL: https://</text><text fill="#000000" font-family="sans-serif" font-size="13" lengthAdjust="spacing" textLength="416.9521" x="12" y="112.6697">developer.android.com/reference/android/app/DatePickerDialog</text><text fill="#000000" font-family="sans-serif" font-size="13" lengthAdjust="spacing" textLength="985.7783" x="12" y="127.8025">RecyclerView / ListView Adapters - official Android reference. Source: Google Android Developer Docs, 2023. License: Apache License 2.0. URL: https://</text><text fill="#000000" font-family="sans-serif" font-size="13" lengthAdjust="spacing" textLength="382.4717" x="12" y="142.9353">developer.android.com/guide/topics/ui/layout/recyclerview</text></g><!--link LogManager to LogEntry--><g class="link" data-entity-1="LogManager" data-entity-2="LogEntry" data-source-line="89" data-uid="lnk9" id="link_LogManager_LogEntry"><path codeLine="89" d="M2248.33,449.99 C2346.85,427.8 2462.68,401.71 2553.81,381.18" fill="none" id="LogManager-LogEntry" style="stroke:#181818;stroke-width:1;"/><text fill="#000000" font-family="sans-serif" font-size="13" lengthAdjust="spacing" textLength="26.5903" x="2401.61" y="399.8069">logs</text><text fill="#000000" font-family="sans-serif" font-size="13" lengthAdjust="spacing" textLength="8.271" x="2255.9712" y="460.6486">1</text><text fill="#000000" font-family="sans-serif" font-size="13" lengthAdjust="spacing" textLength="16.5356" x="2529.7677" y="395.3301">0..</text></g><!--link EventListActivity to EventListAdapter--><g class="link" data-entity-1="EventListActivity" data-entity-2="EventListAdapter" data-source-line="90" data-uid="lnk10" id="link_EventListActivity_EventListAdapter"><path codeLine="90" d="M1518.9,217.03 C1605.38,192.86 1711.69,163.16 1805.6,136.91" fill="none" id="EventListActivity-EventListAdapter" style="stroke:#181818;stroke-width:1;"/><text fill="#000000" font-family="sans-serif" font-size="13" lengthAdjust="spacing" textLength="79.3457" x="1592.56" y="158.8069">creates/sets</text><text fill="#000000" font-family="sans-serif" font-size="13" lengthAdjust="spacing" textLength="8.271" x="1526.3192" y="227.4035">1</text><text fill="#000000" font-family="sans-serif" font-size="13" lengthAdjust="spacing" textLength="24.8066" x="1756.2482" y="156.4776">0..1</text></g><!--link MainActivity to EventListActivity--><g class="link" data-entity-1="MainActivity" data-entity-2="EventListActivity" data-source-line="92" data-uid="lnk11" id="link_MainActivity_EventListActivity"><path codeLine="92" d="M681.15,532.13 C780.37,525.1 906.39,508.62 1012.78,470.74 C1084.73,445.12 1152.7051,405.7141 1211.9451,365.7741" fill="none" id="MainActivity-to-EventListActivity" style="stroke:#181818;stroke-width:1;stroke-dasharray:7,7;"/><polygon fill="#181818" points="1216.92,362.42,1207.2215,364.1346,1212.7742,365.2151,1211.6937,370.7678,1216.92,362.42" style="stroke:#181818;stroke-width:1;"/><text fill="#000000" font-family="sans-serif" font-size="13" lengthAdjust="spacing" textLength="101.6641" x="1043.78" y="407.8069">startActivity(...)</text></g><!--link MainActivity to SummaryActivity--><g class="link" data-entity-1="MainActivity" data-entity-2="SummaryActivity" data-source-line="93" data-uid="lnk12" id="link_MainActivity_SummaryActivity"><path codeLine="93" d="M681.03,561.03 C825.34,581.58 1025.1199,610.0243 1169.4599,630.5743" fill="none" id="MainActivity-to-SummaryActivity" style="stroke:#181818;stroke-width:1;stroke-dasharray:7,7;"/><polygon fill="#181818" points="1175.4,631.42,1167.0537,626.1914,1170.4499,630.7152,1165.926,634.1115,1175.4,631.42" style="stroke:#181818;stroke-width:1;"/><text fill="#000000" font-family="sans-serif" font-size="13" lengthAdjust="spacing" textLength="101.6641" x="1043.78" y="610.8069">startActivity(...)</text></g><!--link MainActivity to LogManager--><g class="link" data-entity-1="MainActivity" data-entity-2="LogManager" data-source-line="94" data-uid="lnk13" id="link_MainActivity_LogManager"><path codeLine="94" d="M681.27,532.27 C963.66,524.88 1520.6921,510.2969 1825.4221,502.3269" fill="none" id="MainActivity-to-LogManager" style="stroke:#181818;stroke-width:1;stroke-dasharray:7,7;"/><polygon fill="#181818" points="1831.42,502.17,1822.3185,498.4067,1826.4217,502.3007,1822.5277,506.4039,1831.42,502.17" style="stroke:#181818;stroke-width:1;"/><text fill="#000000" font-family="sans-serif" font-size="13" lengthAdjust="spacing" textLength="91.9775" x="1301.67" y="507.8069">uses addLog()</text></g><!--link EventListActivity to LogManager--><g class="link" data-entity-1="EventListActivity" data-entity-2="LogManager" data-source-line="95" data-uid="lnk14" id="link_EventListActivity_LogManager"><path codeLine="95" d="M1518.9,322.09 C1613.37,353.82 1725.8124,391.5893 1825.5924,425.1093" fill="none" id="EventListActivity-to-LogManager" style="stroke:#181818;stroke-width:1;stroke-dasharray:7,7;"/><polygon fill="#181818" points="1831.28,427.02,1824.0223,420.3622,1826.5403,425.4278,1821.4747,427.9457,1831.28,427.02" style="stroke:#181818;stroke-width:1;"/><text fill="#000000" font-family="sans-serif" font-size="13" lengthAdjust="spacing" textLength="102.1655" x="1581.06" y="329.8069">uses query logs</text></g><!--link SummaryActivity to LogManager--><g class="link" data-entity-1="SummaryActivity" data-entity-2="LogManager" data-source-line="96" data-uid="lnk15" id="link_SummaryActivity_LogManager"><path codeLine="96" d="M1518.9,616.43 C1613.37,594.69 1725.6529,568.836 1825.4329,545.866" fill="none" id="SummaryActivity-to-LogManager" style="stroke:#181818;stroke-width:1;stroke-dasharray:7,7;"/><polygon fill="#181818" points="1831.28,544.52,1821.612,542.641,1826.4074,545.6417,1823.4068,550.4371,1831.28,544.52" style="stroke:#181818;stroke-width:1;"/><text fill="#000000" font-family="sans-serif" font-size="13" lengthAdjust="spacing" textLength="165.769" x="1549.56" y="567.8069">uses getSummaryByDate</text></g><!--link SummaryActivity to SummaryAdapter--><g class="link" data-entity-1="SummaryActivity" data-entity-2="SummaryAdapter" data-source-line="97" data-uid="lnk16" id="link_SummaryActivity_SummaryAdapter"><path codeLine="97" d="M1518.9,695.29 C1590.9,711.97 1670.8048,730.4758 1751.6948,749.2158" fill="none" id="SummaryActivity-to-SummaryAdapter" style="stroke:#181818;stroke-width:1;stroke-dasharray:7,7;"/><polygon fill="#181818" points="1757.54,750.57,1749.675,744.642,1752.669,749.4415,1747.8694,752.4355,1757.54,750.57" style="stroke:#181818;stroke-width:1;"/><text fill="#000000" font-family="sans-serif" font-size="13" lengthAdjust="spacing" textLength="79.3457" x="1592.56" y="698.8069">creates/sets</text></g><!--link EventListAdapter to LogEntry--><g class="link" data-entity-1="EventListAdapter" data-entity-2="LogEntry" data-source-line="98" data-uid="lnk17" id="link_EventListAdapter_LogEntry"><path codeLine="98" d="M2287.65,136.89 C2303.48,142.25 2319.09,147.88 2334.11,153.74 C2408.36,182.69 2482.089,218.7795 2548.519,253.9995" fill="none" id="EventListAdapter-to-LogEntry" style="stroke:#181818;stroke-width:1;stroke-dasharray:7,7;"/><polygon fill="#181818" points="2553.82,256.81,2547.7421,249.0602,2549.4025,254.4679,2543.9948,256.1283,2553.82,256.81" style="stroke:#181818;stroke-width:1;"/><text fill="#000000" font-family="sans-serif" font-size="13" lengthAdjust="spacing" textLength="99.5693" x="2365.11" y="162.8069">formats entries</text></g><!--link MainActivity to GMN18--><g class="link" data-entity-1="MainActivity" data-entity-2="GMN18" data-source-line="101" data-uid="lnk20" id="link_MainActivity_GMN18"><path d="M650.16,585.63 C784.52,632.29 993.47,703.98 1175.78,762.74 C1192.41,768.1 1210,773.63 1227.32,778.99" fill="none" id="MainActivity-GMN18" style="stroke:#181818;stroke-width:1;stroke-dasharray:7,7;"/></g><!--SRC=[pLTTQ-Gs57tVNo6oBnD8x6mAIncsWIGpMG89B9cqBwK4ZNt7eyQsN4cUx7JP_zwZ3tl6Zfsab8K6mjZI_JZtwEXAre-YhBZY1KjohlMvCKeiQqFNYImNuczY9-yOqwrHnPD7dj72R7DYYXB3oomdcEIqCin8faIsDYmLTax8yXscN61soqLvZh6DC5lspOuVCohadqApALiWQvdz_WT6CNviPzypMLugueOcccyelIuraYL8ZI6uNDHbcjCXdZPIfDRZ-oxPV4EbkH7Qz3Fc6FjDq1FSRiAZ6-Sfhmmf3EzS_P2RrfIZ7afdFhVz-KzG4N4jdsoOBo9v93Lf9nr8oTCRcUahgQp99DrbxTZP6FDKc9dWkSmcmAssjZ2PpUtZdcs7d4LT55nj-zGCruXnRsufwRDMIfj8a5t2U_hQJFn8NWBu4KuwTOA7Mrv2hQefyHlo6v5yPo8WyMm5gv0Zqw7CJmsHPqrDrc1dFpdiHSt8D2KwuBtGFBMhEd6YRpL_n8me24v5DRJ426cLSB4T4i8paCu-C3JiSikhJqtYwz8Gi9tvAeHUy89c7DH-20v7B3tTyrrAcHCl1sXs03gRkgtF3VLBtDF8SUl_EZ5DXNDhw1ZUow6RyMwOFfltJL3dlnFv_imBApBIPKBt20o8SfLptqrk-5RMK8KVyAdIbKKdYYed6nsxlE2cGqa_y0JDs61_mU_IFnqnQdTULmOjItOpJYgfXUt3C1Cbl11eGwffWVRd23rT8LXu_QnaNHs6bx7EyM_ADTBmtAVlrDYDDLHXQ3mZgZtQZ_nZYjvh80SV3e2S7Pn4qS5EyLFNBc3v_BpPSy3JCwLCMU8QeuwXF6sJTSx7A3eRY3bbKALgtoTH51qEUVOR_5lzzkgTibf3NA5b7GwMEEpoLqrW9l3IHpBiqczQ8uuzzVKePCz93jcQjLgvZQQRdMD9BoMwex-oo5M744pUaQvagSLIv90JwQaNxXsLAOBxDfCfaJ9UfhPWLaYPXcCKwjEHRs-yBfCr8mlENJ-SUQDjxjCXUkHqXzWEr7Dmp_WVHtX3nXAhDAjmYZBEKhwrTxEDtG0Ef5qU3-z286FAHRvjEmeipPfsMDVS7jECSDFGSOhopEjeU-itZlMA3DYnQIf5sd9KaJgsW3t1dgZ0pp6xbrbciHGLHA7TFGAzMlCClO4zhQa43fHZEAElm3-6qyZAekmSq2C0hIWC_faMzgfhq5QqaOg2lnSNRhjIfG7Z5oKt8gMs44MMrmrwrVxAhoc7mQj4DYd60Lv2xBMYXgz6Vkn9c3N3aktEqRTBhBtwZkGC7JweMiadxMfRMZ5v75LUxsLcjgDxTlnnjvlITb_YWq5NET- -LLQluLkKlC9DqhHiEqbOYChltaJM9QXn764P4fG16Ooj1jSsaQnXftrI_noodPUfmlK0KX8h51LzBN8t3a77kJiHux3Fjmy5fFIYWQFqmMw-5yr2OKCsmb3XmupE3dcdYZ_nPKxnCdl05o24_b0fyQAPM-hEB5HUuoUHkOIs_Gp3aMvVfyuARhogs2_i_TNbxEVBcHyqRJ8xCx-OVRowsDqc7vQPSvZFBwu- -bi5zBJlSUh-TbC0xsleX1jUsajXx-zG4SR2KhBT9uZ_k49SkLg912-jZQ8LGKu9HMpXz31bdwMqxQcDWbN89VJ5PZBHH-pqvFId2FSro4t3-XnVqsYquPsTHYSH-_NkPihMnbHw6iS0b3OX8kw3HeaiuZPr74PZS1htGJkf9jia9-NkFd7xzSR23jB_ixgo6eqpHdSMYOvhqMXMXIes_dhMBE8_]--></g></svg>